{"title":"Diamonds are Forever(1971)Mpeg_4[DaScubaDude]","uid":14583784,"size":1199313918,"categoryP":"video","categoryS":"movies","magnet":"?xt=urn:btih:bcae44f33558b62d8a25715bd43145e970752ba0&amp;dn=Diamonds+are+Forever%281971%29Mpeg_4%5BDaScubaDude%5D&amp;tr=udp%3A%2F%2Ftracker.leechers-paradise.org%3A6969&amp;tr=udp%3A%2F%2Fzer0day.ch%3A1337&amp;tr=udp%3A%2F%2Fopen.demonii.com%3A1337&amp;tr=udp%3A%2F%2Ftracker.coppersurfer.tk%3A6969&amp;tr=udp%3A%2F%2Fexodus.desync.com%3A6969","seeders":0,"leechers":0,"uploader":"dascuba","files":1,"time":1462900716,"description":"Diamonds Are Forever (1971)\r\nGP | 2h | Action, Adventure, Thriller | 17 December 1971 (USA)\r\nA diamond smuggling investigation leads James Bond to Las Vegas, where he uncovers an evil plot involving a rich business tycoon.\r\nDirector: Guy Hamilton\r\nWriters: Richard Maibaum (screenplay), Tom Mankiewicz (screenplay)\r\nStars: Sean Connery, Jill St. John, Charles Gray \r\n\r\nGeneral\r\nComplete name                            : DiamondsAreForeverDIAMONDS_ARE_FOREVER_Title11.mp4\r\nFormat                                   : MPEG-4\r\nFormat profile                           : Base Media\r\nCodec ID                                 : isom (isom/iso2/avc1/mp41)\r\nFile size                                : 1.12 GiB\r\nDuration                                 : 2h 0mn\r\nOverall bit rate                         : 1 332 Kbps\r\nMovie name                               : DIAMONDS_ARE_FOREVER\r\nGenre                                    : Action\r\nWriting application                      : Lavf54.6.100\r\n\r\nVideo\r\nID                                       : 1\r\nFormat                                   : AVC\r\nFormat/Info                              : Advanced Video Codec\r\nFormat profile                           :   \r\nFormat settings, CABAC                   : No\r\nFormat settings, ReFrames                : 6 frames\r\nCodec ID                                 : avc1\r\nCodec ID/Info                            : Advanced Video Coding\r\nDuration                                 : 2h 0mn\r\nBit rate                                 : 1 198 Kbps\r\nWidth                                    : 720 pixels\r\nHeight                                   : 404 pixels\r\nDisplay aspect ratio                     : 16:9\r\nFrame rate mode                          : Constant\r\nFrame rate                               : 29.970 (30000/1001) fps\r\nColor space                              : YUV\r\nChroma subsampling                       : 4:2:0\r\nBit depth                                : 8 bits\r\nScan type                                : Progressive\r\nBits/(Pixel*Frame)                       : 0.137\r\nStream size                              : 1.00 GiB (90%)\r\n\r\nAudio\r\nID                                       : 2\r\nFormat                                   : AAC\r\nFormat/Info                              : Advanced Audio Codec\r\nFormat profile                           : LC\r\nCodec ID                                 : 40\r\nDuration                                 : 2h 0mn\r\nBit rate mode                            : Constant\r\nBit rate                                 : 128 Kbps\r\nChannel(s)                               : 2 channels\r\nChannel positions                        : Front: L R\r\nSampling rate                            : 44.1 KHz\r\nFrame rate                               : 43.066 fps (1024 spf)\r\nCompression mode                         : Lossy\r\nStream size                              : 110 MiB (10%)\r\nDefault                                  : Yes\r\nAlternate group                          : 1","torrent":{"xt":"urn:btih:bcae44f33558b62d8a25715bd43145e970752ba0","amp;dn":"Diamonds+are+Forever%281971%29Mpeg_4%5BDaScubaDude%5D","amp;tr":["udp%3A%2F%2Ftracker.leechers-paradise.org%3A6969","udp%3A%2F%2Fzer0day.ch%3A1337","udp%3A%2F%2Fopen.demonii.com%3A1337","udp%3A%2F%2Ftracker.coppersurfer.tk%3A6969","udp%3A%2F%2Fexodus.desync.com%3A6969"],"infoHash":"bcae44f33558b62d8a25715bd43145e970752ba0","infoHashBuffer":{"type":"Buffer","data":[188,174,68,243,53,88,182,45,138,37,113,91,212,49,69,233,112,117,43,160]},"announce":[],"urlList":[]}}